<svg className='home-btn' width="40" xmlns="http://www.w3.org/2000/svg" version="1.1" viewBox="12.5 17.0 75.0 75.0">
        <path d="m72.5 47.52v20.559c0 2.3438-1.8984 4.2422-4.2383 4.2422h-8.0625c-0.58594-0.003906-1.1445-0.23828-1.5586-0.65625-0.41406-0.41406-0.64453-0.97656-0.64062-1.5625v-15.363c0-0.58984-0.23438-1.1562-0.65234-1.5703-0.41797-0.41797-0.98828-0.65234-1.5781-0.64844h-11.52c-0.59375-0.007812-1.168 0.22266-1.5898 0.64062-0.42188 0.41797-0.66016 0.98438-0.66016 1.5781v15.363c0.003906 0.58984-0.23047 1.1523-0.64844 1.5703-0.41406 0.41797-0.98047 0.65234-1.5703 0.64844h-8.043c-2.3398 0-4.2383-1.8984-4.2383-4.2422v-20.559c0-0.64062 0.27734-1.2539 0.76172-1.6797l20.277-17.621c0.83984-0.71875 2.082-0.71875 2.9219 0l20.27 17.621c0.48828 0.42188 0.76953 1.0352 0.76953 1.6797z"/></svg>